<svg xmlns="http://www.w3.org/2000/svg" width="1044.01" height="722.79" viewBox="0 0 1044.01 722.79"><defs><style>.e499f3d8-fe19-4e90-a3c1-cc1ee28ba2a6 {
        fill: #030326;
      }

      .e184a2f5-0942-461c-8655-f9d935319930 {
        fill: none;
      }

      .e317939b-89be-4a22-b3f6-af7be826ace8 {
        fill: #fff;
      }

      .fe64c5db-6582-4147-9a13-2d8ce362c128 {
        fill: #9630d8;
      }

      .fdc5ba9c-7de3-4502-a6a3-ff8f6da91e85 {
        fill: #6effc4;
      }</style></defs><g id="b4135e66-759f-48ae-a09c-dddd7d140634" data-name="Layer 2"><g id="ef2252aa-3e44-4107-918b-e72e54a34aff" data-name="Layer 1"><g id="a1bfa55e-9405-45fc-80bd-018ed6cfaa20" data-name="biddable-media"><rect width="178.63" height="178.63" x="593.3" y="111.45" class="e499f3d8-fe19-4e90-a3c1-cc1ee28ba2a6" transform="rotate(-45 682.61 200.764)"></rect><rect width="178.63" height="178.63" x="593.3" y="111.45" class="e184a2f5-0942-461c-8655-f9d935319930" transform="rotate(-45 682.61 200.764)"></rect><path d="M631.26 182a5.48 5.48 0 0 1 4 5.3 6.31 6.31 0 0 1-6.13 6.49h-9.67v-22.11h8.48c3.76 0 6.13 2.25 6.13 5.85a4.53 4.53 0 0 1-2.81 4.47zm-3.4-1.26c1.8 0 2.73-1.44 2.73-3.11a2.67 2.67 0 0 0-2.46-2.87 2.35 2.35 0 0 0-.53 0h-4.7v6zm-4.92 2.93v7h5.56a3.27 3.27 0 0 0 3.26-3.29v-.12a3.5 3.5 0 0 0-3.34-3.59z" class="e317939b-89be-4a22-b3f6-af7be826ace8"></path><path d="M640.77 170.66a2.09 2.09 0 0 1 .29 4.17h-.29a2.09 2.09 0 1 1-.29-4.17zm1.64 8.16h-3.27v15h3.27z" class="e317939b-89be-4a22-b3f6-af7be826ace8"></path><path d="M658.69 191.63a5.86 5.86 0 0 1-5.07 2.51 7.46 7.46 0 0 1-7.49-7.41v-.4c0-4.82 3.43-7.84 7.48-7.84a5.69 5.69 0 0 1 5.08 2.48v-10.31H662v23.16h-3.28zm-4.69-9.92a4.36 4.36 0 0 0-4.5 4.21v.35a4.55 4.55 0 1 0 4.54-4.56z" class="e317939b-89be-4a22-b3f6-af7be826ace8"></path><path d="M678.19 191.63a5.86 5.86 0 0 1-5.07 2.51 7.46 7.46 0 0 1-7.49-7.41v-.4c0-4.82 3.43-7.84 7.48-7.84a5.68 5.68 0 0 1 5.07 2.48v-10.31h3.28v23.16h-3.27zm-4.65-9.92a4.36 4.36 0 0 0-4.5 4.21v.35a4.55 4.55 0 1 0 4.54-4.56z" class="e317939b-89be-4a22-b3f6-af7be826ace8"></path><path d="M697.79 191.66a6 6 0 0 1-5 2.48 7.83 7.83 0 0 1 0-15.65 6 6 0 0 1 5 2.45v-2.12h3.27v15h-3.27zm-4.66-.74a4.61 4.61 0 1 0-4.59-4.65 4.54 4.54 0 0 0 4.39 4.65z" class="e317939b-89be-4a22-b3f6-af7be826ace8"></path><path d="M705.69 193.82v-23.16H709V181a5.6 5.6 0 0 1 5-2.48c4.08 0 7.49 3 7.49 7.84a7.48 7.48 0 0 1-7.14 7.8H714a5.79 5.79 0 0 1-5-2.51v2.19zm7.94-2.9a4.48 4.48 0 0 0 4.53-4.42.89.89 0 0 0 0-.23 4.38 4.38 0 0 0-4.19-4.56h-.33a4.61 4.61 0 0 0 0 9.21z" class="e317939b-89be-4a22-b3f6-af7be826ace8"></path><path d="M725.22 170.66h3.31v23.16h-3.31z" class="e317939b-89be-4a22-b3f6-af7be826ace8"></path><path d="M747.39 187.47h-11.92a4.36 4.36 0 0 0 4.59 3.76 4.66 4.66 0 0 0 4.08-2.16c.84.39 1.83.81 2.7 1.19a7.85 7.85 0 1 1-6.94-11.79c4.27 0 7.52 3 7.52 7.78 0 .37 0 .92-.03 1.22zm-3.22-2.41a4.06 4.06 0 0 0-4.27-3.7 4.22 4.22 0 0 0-4.43 3.7z" class="e317939b-89be-4a22-b3f6-af7be826ace8"></path><path d="M657.83 207.82h3l2.7 22.13h-3.41l-1.89-15.8-6.49 13.32h-2.84l-6.52-13.33-1.9 15.8h-3.4l2.7-22.13h3l7.51 15.77z" class="e317939b-89be-4a22-b3f6-af7be826ace8"></path><path d="M681.54 223.63h-11.92a4.35 4.35 0 0 0 4.59 3.75 4.63 4.63 0 0 0 4.08-2.15c.84.39 1.83.8 2.7 1.19a7.85 7.85 0 1 1-6.94-11.79c4.27 0 7.52 3 7.52 7.78 0 .35 0 .9-.03 1.22zm-3.22-2.41a4.06 4.06 0 0 0-4.27-3.7 4.22 4.22 0 0 0-4.43 3.7z" class="e317939b-89be-4a22-b3f6-af7be826ace8"></path><path d="M696.69 227.77a5.88 5.88 0 0 1-5.08 2.51 7.47 7.47 0 0 1-7.49-7.43v-.38c0-4.82 3.44-7.84 7.48-7.84a5.69 5.69 0 0 1 5.08 2.48V206.8H700V230h-3.26zm-4.69-9.93a4.36 4.36 0 0 0-4.5 4.22v.34a4.55 4.55 0 1 0 4.53-4.57z" class="e317939b-89be-4a22-b3f6-af7be826ace8"></path><path d="M706.24 206.8a2.09 2.09 0 1 1 .29 4.17h-.29a2.09 2.09 0 0 1-.29-4.17zm1.64 8.15h-3.28v15h3.28z" class="e317939b-89be-4a22-b3f6-af7be826ace8"></path><path d="M724.19 227.8a6 6 0 0 1-5 2.48 7.83 7.83 0 0 1 0-15.65 5.93 5.93 0 0 1 5 2.44V215h3.28v15h-3.28zm-4.65-.74a4.61 4.61 0 1 0-4.6-4.65 4.54 4.54 0 0 0 4.41 4.65z" class="e317939b-89be-4a22-b3f6-af7be826ace8"></path></g><g id="aab106ed-b654-464a-999b-c24d965e6215" data-name="seo"><rect width="180.19" height="180.19" x="753.12" y="271.28" class="e499f3d8-fe19-4e90-a3c1-cc1ee28ba2a6" transform="rotate(-45 843.218 361.378)"></rect><rect width="180.19" height="180.19" x="753.12" y="271.28" class="e184a2f5-0942-461c-8655-f9d935319930" transform="rotate(-45 843.218 361.378)"></rect><path d="M817.43 367.3a4.13 4.13 0 0 0 4.4 3.63c2.61 0 4-1.41 4.18-3 .13-2.05-1.45-3.11-3.5-3.6l-2.8-.7c-4.75-1.29-5.49-4-5.49-5.94 0-3.79 3.41-6.33 7.29-6.33 4.08 0 7.2 2.5 7.2 6.55h-3.41c0-2-1.57-3.34-3.85-3.34-2 0-3.82 1.22-3.82 3 0 .87.32 2.22 3 2.89l2.83.74c4.46 1.19 6.33 3.69 6 6.87-.32 3.47-3.31 6-7.55 6-4.59 0-7.8-3.15-7.8-6.75z" class="e317939b-89be-4a22-b3f6-af7be826ace8"></path><path d="M833.75 351.59h13.33v3.15h-9.92v6.55h8.67v3.12h-8.67v6.2h10.24v3.12h-13.65z" class="e317939b-89be-4a22-b3f6-af7be826ace8"></path><path d="M861.28 351.34a11.36 11.36 0 1 1-11.18 11.54v-.17a11.22 11.22 0 0 1 11.07-11.37h.11zm0 19.37a8 8 0 1 0-7.76-8.23v.23a7.84 7.84 0 0 0 7.68 8h.08z" class="e317939b-89be-4a22-b3f6-af7be826ace8"></path></g><g id="e46a12b4-1e2d-4fb7-992e-23442b07944a" data-name="data-analytics"><rect width="177.9" height="177.9" x="593.66" y="433.05" class="e499f3d8-fe19-4e90-a3c1-cc1ee28ba2a6" transform="rotate(-45 682.61 522.003)"></rect><path d="M637 515.05v-22.13h8.61c6.3 0 10 4.82 10 11.11s-3.66 11-10 11zm3.41-3.15h5.2c4.34 0 6.56-3.47 6.56-7.87s-2.22-7.93-6.56-7.93h-5.2z" class="e317939b-89be-4a22-b3f6-af7be826ace8"></path><path d="M671.06 512.9a6 6 0 0 1-5 2.47 7.82 7.82 0 1 1 0-15.64 5.93 5.93 0 0 1 5 2.44v-2.12h3.28v15h-3.28zm-4.65-.74a4.61 4.61 0 1 0-4.6-4.66 4.54 4.54 0 0 0 4.4 4.66z" class="e317939b-89be-4a22-b3f6-af7be826ace8"></path><path d="M683.46 500.05h3.23v2.73h-3.18v12.27h-3.3v-12.27h-2.7v-2.73h2.7v-5.69h3.3z" class="e317939b-89be-4a22-b3f6-af7be826ace8"></path><path d="M701.23 512.9a6 6 0 0 1-5 2.47 7.82 7.82 0 0 1 0-15.64 6 6 0 0 1 5 2.44v-2.12h3.27v15h-3.27zm-4.66-.74a4.61 4.61 0 1 0-4.57-4.66 4.54 4.54 0 0 0 4.4 4.66z" class="e317939b-89be-4a22-b3f6-af7be826ace8"></path><path d="m730.11 492.92-10.86 22.13H716l10.86-22.13z" class="e317939b-89be-4a22-b3f6-af7be826ace8"></path><path d="M631.41 545.66h-8.93l-2.12 5.53h-3.67l8.31-22.13h3.65l8.36 22.13h-3.6zm-7.72-3h6.61l-3.3-9.33z" class="e317939b-89be-4a22-b3f6-af7be826ace8"></path><path d="M642.94 551.19h-3.31v-15h3.31v2.28a5.21 5.21 0 0 1 4.59-2.56c3.63 0 5.72 2.34 5.72 6.58v8.74h-3.31v-8.36c0-2.37-1.22-3.72-3.14-3.72a3.63 3.63 0 0 0-3.87 3.37 3.32 3.32 0 0 0 0 .63z" class="e317939b-89be-4a22-b3f6-af7be826ace8"></path><path d="M669.41 549a6 6 0 0 1-5 2.48 7.82 7.82 0 0 1 0-15.64 5.91 5.91 0 0 1 5 2.44v-2.12h3.28v15h-3.28zm-4.66-.73a4.61 4.61 0 1 0-4.59-4.66 4.54 4.54 0 0 0 4.4 4.66z" class="e317939b-89be-4a22-b3f6-af7be826ace8"></path><path d="M677.31 528h3.31v23.16h-3.31z" class="e317939b-89be-4a22-b3f6-af7be826ace8"></path><path d="M689.52 558.47h-3.47l3.24-8-5.94-14.29h3.54l4.17 10.29 4.21-10.27h3.53z" class="e317939b-89be-4a22-b3f6-af7be826ace8"></path><path d="M706 536.19h3.18v2.73H706v12.27h-3.34v-12.27H700v-2.73h2.7v-5.72h3.3z" class="e317939b-89be-4a22-b3f6-af7be826ace8"></path><path d="M714 528a2.09 2.09 0 1 1 .29 4.17H714a2.09 2.09 0 0 1-.29-4.17zm1.63 8.16h-3.27v15h3.27z" class="e317939b-89be-4a22-b3f6-af7be826ace8"></path><path d="M727.26 535.87a7.61 7.61 0 0 1 5.94 2.6l-2.51 2a4.43 4.43 0 0 0-3.38-1.44 4.51 4.51 0 0 0-4.71 4.3.89.89 0 0 0 0 .23 4.64 4.64 0 0 0 4.59 4.69h.13a4.51 4.51 0 0 0 3.38-1.48l2.6 2a8 8 0 0 1-14-5.23 7.67 7.67 0 0 1 7.63-7.71h.33z" class="e317939b-89be-4a22-b3f6-af7be826ace8"></path><path d="M736.1 539.82c.19-2.22 2.6-4 5.36-4s5.27 1.22 5.46 4.43h-3.15a2 2 0 0 0-2.18-1.61 2.67 2.67 0 0 0-2.12.84 1.53 1.53 0 0 0-.13 1.35c.19.57 1 .93 1.83 1.15l2.31.58c3.25.8 3.92 2.86 3.92 4.37 0 2.89-2.54 4.53-6 4.53-2.8 0-5.69-1.77-5.75-4.92h3c.16 1.29 1.22 2.15 3 2.15 1.5 0 2.66-.67 2.66-1.79s-1-1.51-2.09-1.77l-2-.48c-3.16-.82-4.32-2.42-4.12-4.83z" class="e317939b-89be-4a22-b3f6-af7be826ace8"></path></g><g id="b791576a-3145-4020-8c61-d988c01d1890" data-name="content"><rect width="181.58" height="181.58" x="270.59" y="431.21" class="e499f3d8-fe19-4e90-a3c1-cc1ee28ba2a6" transform="rotate(-45 361.377 521.993)"></rect><path d="M325.18 530.58a10.72 10.72 0 0 1-8.61 4.08 11.36 11.36 0 0 1 0-22.71 10.82 10.82 0 0 1 8.55 4l-2.64 2a7.93 7.93 0 1 0-5.91 13.4 7.62 7.62 0 0 0 6-2.89z" class="e317939b-89be-4a22-b3f6-af7be826ace8"></path><path d="M327.2 526.79a7.84 7.84 0 1 1 7.85 7.85 7.84 7.84 0 0 1-7.85-7.85zm12.37 0a4.55 4.55 0 1 0 0 .42 2.94 2.94 0 0 0 0-.42z" class="e317939b-89be-4a22-b3f6-af7be826ace8"></path><path d="M349.85 534.34h-3.31v-15h3.31v2.25a5.2 5.2 0 0 1 4.59-2.57c3.63 0 5.72 2.35 5.72 6.59v8.73h-3.31V526c0-2.38-1.22-3.73-3.14-3.73a3.63 3.63 0 0 0-3.87 3.37 3.32 3.32 0 0 0 0 .63z" class="e317939b-89be-4a22-b3f6-af7be826ace8"></path><path d="M369.12 519.34h3.18v2.73h-3.18v12.27h-3.3v-12.27h-2.7v-2.73h2.7v-5.68h3.3z" class="e317939b-89be-4a22-b3f6-af7be826ace8"></path><path d="M389.43 528h-11.92a4.36 4.36 0 0 0 4.59 3.76 4.63 4.63 0 0 0 4.08-2.15c.84.39 1.83.8 2.7 1.19a7.85 7.85 0 1 1-6.94-11.8c4.27 0 7.52 3 7.52 7.77 0 .38 0 .92-.03 1.23zm-3.22-2.4a4.06 4.06 0 0 0-4.27-3.7 4.22 4.22 0 0 0-4.43 3.7z" class="e317939b-89be-4a22-b3f6-af7be826ace8"></path><path d="M396.27 534.34H393v-15h3.31v2.25a5.2 5.2 0 0 1 4.59-2.57c3.63 0 5.72 2.35 5.72 6.59v8.73h-3.31V526c0-2.38-1.22-3.73-3.15-3.73s-3.85 1.06-3.85 4z" class="e317939b-89be-4a22-b3f6-af7be826ace8"></path><path d="M415.54 519.34h3.15v2.73h-3.18v12.27h-3.31v-12.27h-2.7v-2.73h2.7v-5.68h3.31z" class="e317939b-89be-4a22-b3f6-af7be826ace8"></path></g><g id="a25853bd-bf70-4969-8337-577fdac00ddf" data-name="social-media"><rect width="180.19" height="180.19" x="110.67" y="271.29" class="e499f3d8-fe19-4e90-a3c1-cc1ee28ba2a6" transform="rotate(-45 200.763 361.391)"></rect><path d="M161.4 348a4.13 4.13 0 0 0 4.4 3.63c2.6 0 3.95-1.42 4.18-3 .13-2.06-1.45-3.12-3.5-3.6l-2.8-.71c-4.75-1.28-5.49-4-5.49-5.94 0-3.79 3.4-6.33 7.29-6.33 4.08 0 7.2 2.51 7.2 6.56h-3.41c0-2-1.57-3.34-3.85-3.34-2 0-3.83 1.22-3.83 3 0 .86.32 2.21 3 2.89l2.83.74c4.46 1.19 6.32 3.69 6 6.87-.32 3.47-3.31 5.94-7.55 5.94-4.59 0-7.8-3.14-7.8-6.74z" class="e317939b-89be-4a22-b3f6-af7be826ace8"></path><path d="M176.18 346.88a7.84 7.84 0 1 1 0 .56zm12.36 0a4.55 4.55 0 1 0 0 .42 2.94 2.94 0 0 0 0-.42z" class="e317939b-89be-4a22-b3f6-af7be826ace8"></path><path d="M202.55 339.11a7.61 7.61 0 0 1 5.94 2.6l-2.57 2.06a4.41 4.41 0 0 0-3.37-1.45 4.51 4.51 0 0 0-4.71 4.3v.26a4.65 4.65 0 0 0 4.57 4.69h.15a4.46 4.46 0 0 0 3.37-1.47l2.6 2a7.91 7.91 0 1 1-6-13z" class="e317939b-89be-4a22-b3f6-af7be826ace8"></path><path d="M213.69 331.27a2.09 2.09 0 0 1 0 4.18 2.09 2.09 0 0 1 0-4.18zm1.64 8.16h-3.27v15h3.27z" class="e317939b-89be-4a22-b3f6-af7be826ace8"></path><path d="M231.62 352.28a6 6 0 0 1-5 2.47 7.82 7.82 0 0 1 0-15.64 6 6 0 0 1 5 2.44v-2.08h3.28v15h-3.28zm-4.66-.74a4.61 4.61 0 1 0-4.59-4.66 4.54 4.54 0 0 0 4.4 4.66z" class="e317939b-89be-4a22-b3f6-af7be826ace8"></path><path d="M239.52 331.27h3.31v23.2h-3.31z" class="e317939b-89be-4a22-b3f6-af7be826ace8"></path><path d="M176 368.47h3l2.71 22.1h-3.4l-1.9-15.8-6.51 13.33H167l-6.52-13.33-1.8 15.8h-3.41l2.7-22.13h3l7.52 15.77z" class="e317939b-89be-4a22-b3f6-af7be826ace8"></path><path d="M199.69 384.24h-11.92a4.37 4.37 0 0 0 4.6 3.76 4.63 4.63 0 0 0 4.08-2.15c.83.38 1.83.8 2.69 1.19a7.85 7.85 0 1 1-6.93-11.79c4.27 0 7.51 3 7.51 7.77-.03.36-.03.9-.03 1.22zm-3.21-2.41a4.07 4.07 0 0 0-4.27-3.69 4.21 4.21 0 0 0-4.44 3.69z" class="e317939b-89be-4a22-b3f6-af7be826ace8"></path><path d="M214.85 388.39a5.88 5.88 0 0 1-5.07 2.5 7.83 7.83 0 0 1 0-15.64 5.65 5.65 0 0 1 5.07 2.47v-10.31h3.28v23.16h-3.28zm-4.66-9.92a4.37 4.37 0 0 0-4.49 4.24v.29a4.55 4.55 0 1 0 4.54-4.56z" class="e317939b-89be-4a22-b3f6-af7be826ace8"></path><path d="M224.39 367.41a2.09 2.09 0 0 1 0 4.18 2.09 2.09 0 0 1 0-4.18zm1.64 8.16h-3.28v15H226z" class="e317939b-89be-4a22-b3f6-af7be826ace8"></path><path d="M242.35 388.47a6 6 0 0 1-5 2.47 7.82 7.82 0 0 1 0-15.64 6 6 0 0 1 5 2.44v-2.17h3.27v15h-3.27zm-4.66-.74a4.61 4.61 0 1 0-4.59-4.66 4.54 4.54 0 0 0 4.45 4.61h.14z" class="e317939b-89be-4a22-b3f6-af7be826ace8"></path></g><g id="e9fe8ee6-272a-4879-a74e-7cecba852def" data-name="digital-strategy"><rect width="178.63" height="178.63" x="272.08" y="111.46" class="e499f3d8-fe19-4e90-a3c1-cc1ee28ba2a6" transform="rotate(-45 361.394 200.776)"></rect><path d="M316.07 193.82v-22.13h8.62c6.3 0 10 4.82 10 11.11s-3.66 11-10 11zm3.41-3.15h5.21c4.34 0 6.56-3.47 6.56-7.87s-2.22-7.93-6.56-7.93h-5.2z" class="e317939b-89be-4a22-b3f6-af7be826ace8"></path><path d="M340 170.66a2.09 2.09 0 0 1 0 4.18 2.09 2.09 0 0 1 0-4.18zm1.64 8.16h-3.24v15h3.29z" class="e317939b-89be-4a22-b3f6-af7be826ace8"></path><path d="M353 198.22c3.05 0 5-1.7 5-5.91v-.77a5.72 5.72 0 0 1-5.08 2.6 7.82 7.82 0 0 1 0-15.64A5.85 5.85 0 0 1 358 181v-2.21h3.24v12.81c0 6.91-3.21 9.7-8.25 9.7a7.74 7.74 0 0 1-6.94-4.21c.58-.25 2.15-1.12 2.73-1.38a4.85 4.85 0 0 0 4.22 2.51zm.32-16.51a4.49 4.49 0 0 0-4.56 4.42v.2A4.45 4.45 0 0 0 353 191h.31a4.58 4.58 0 0 0 4.62-4.52v-.11a4.4 4.4 0 0 0-4.17-4.62h-.45z" class="e317939b-89be-4a22-b3f6-af7be826ace8"></path><path d="M367.54 170.66a2.09 2.09 0 0 1 0 4.18 2.09 2.09 0 0 1 0-4.18zm1.63 8.16h-3.27v15h3.27z" class="e317939b-89be-4a22-b3f6-af7be826ace8"></path><path d="M378.3 178.82h3.18v2.73h-3.18v12.27H375v-12.27h-2.7v-2.73h2.7v-5.69h3.31z" class="e317939b-89be-4a22-b3f6-af7be826ace8"></path><path d="M396.06 191.67a6 6 0 0 1-5 2.47 7.82 7.82 0 0 1 0-15.64 6 6 0 0 1 5 2.44v-2.12h3.28v15h-3.28zm-4.66-.74a4.61 4.61 0 1 0-4.59-4.66 4.54 4.54 0 0 0 4.4 4.66z" class="e317939b-89be-4a22-b3f6-af7be826ace8"></path><path d="M404 170.66h3.31v23.16H404z" class="e317939b-89be-4a22-b3f6-af7be826ace8"></path><path d="M304.12 227.55a4.13 4.13 0 0 0 4.4 3.63c2.61 0 4-1.42 4.18-3 .13-2.06-1.44-3.12-3.5-3.6l-2.8-.71c-4.75-1.28-5.49-4-5.49-5.94 0-3.79 3.41-6.33 7.29-6.33 4.08 0 7.2 2.51 7.2 6.56H312c0-2-1.57-3.34-3.85-3.34-2 0-3.82 1.22-3.82 3 0 .87.32 2.21 2.95 2.89l2.83.74c4.46 1.19 6.33 3.69 6 6.87-.32 3.47-3.3 5.94-7.55 5.94-4.59 0-7.8-3.14-7.8-6.74z" class="e317939b-89be-4a22-b3f6-af7be826ace8"></path><path d="M324.17 219h3.18v2.73h-3.18V234h-3.31v-12.3h-2.7V219h2.7v-5.68h3.31z" class="e317939b-89be-4a22-b3f6-af7be826ace8"></path><path d="M333.77 234h-3.3v-15h3.3v3.44c.77-2.67 2.25-3.76 4.12-3.76a5.56 5.56 0 0 1 2.66.58l-.54 3.05a4.76 4.76 0 0 0-2.22-.51c-2.83 0-4 2.82-4 6.81z" class="e317939b-89be-4a22-b3f6-af7be826ace8"></path><path d="M354.69 231.82a6 6 0 0 1-5 2.47 7.82 7.82 0 1 1 0-15.64 6 6 0 0 1 5 2.44V219H358v15h-3.28zm-4.66-.74a4.61 4.61 0 1 0-4.59-4.66 4.54 4.54 0 0 0 4.4 4.66z" class="e317939b-89be-4a22-b3f6-af7be826ace8"></path><path d="M367.05 219h3.18v2.73h-3.18V234h-3.31v-12.3h-2.69V219h2.69v-5.68h3.31z" class="e317939b-89be-4a22-b3f6-af7be826ace8"></path><path d="M387.35 227.65h-11.91a4.36 4.36 0 0 0 4.56 3.75 4.63 4.63 0 0 0 4.08-2.15c.83.39 1.83.8 2.7 1.19a7.85 7.85 0 1 1-6.94-11.79c4.27 0 7.52 3 7.52 7.77.03.36.03.9-.01 1.23zm-3.21-2.41a4.06 4.06 0 0 0-4.27-3.7 4.22 4.22 0 0 0-4.43 3.7z" class="e317939b-89be-4a22-b3f6-af7be826ace8"></path><path d="M397.6 238.37c3 0 5-1.7 5-5.91v-.77a5.7 5.7 0 0 1-5.07 2.6 7.82 7.82 0 0 1 0-15.64 5.82 5.82 0 0 1 5.07 2.54V219h3.25v12.79c0 6.9-3.22 9.7-8.26 9.7a7.74 7.74 0 0 1-6.94-4.21c.58-.26 2.15-1.13 2.73-1.38a4.87 4.87 0 0 0 4.22 2.47zm.32-16.51a4.49 4.49 0 0 0-4.56 4.42v.19a4.44 4.44 0 0 0 4.24 4.62h.32a4.58 4.58 0 0 0 4.63-4.53v-.09a4.42 4.42 0 0 0-4.2-4.63z" class="e317939b-89be-4a22-b3f6-af7be826ace8"></path><path d="M414.75 241.3h-3.47l3.25-8-5.94-14.3h3.53l4.18 10.28 4.2-10.28h3.5z" class="e317939b-89be-4a22-b3f6-af7be826ace8"></path></g><rect width="179.74" height="179.74" x="432.14" y="271.52" class="e317939b-89be-4a22-b3f6-af7be826ace8" transform="rotate(-45 522.002 361.39)"></rect><path id="e805e6ed-75ae-4e14-923d-040fa252411d" d="M682.61 0 361.37 321.23 200.76 160.62l-40.16 40.15 160.62 160.62L160.61 522l40.16 40.15 160.61-160.6L481.84 522 522 562.17l120.46 120.46 40.16 40.16L1044 361.4zm0 642.48L562.15 522 522 481.86 401.53 361.39 682.6 80.32l120.47 120.47 40.15 40.15 120.47 120.47z" class="fe64c5db-6582-4147-9a13-2d8ce362c128" data-name="outer-lines-purple"></path><g id="a4d62da7-d1dd-4978-ac9f-93acae8c0425" data-name="outer-lines-green"><polygon points="361.38 80.31 481.84 200.77 522 160.61 401.54 40.15 361.39 0 200.76 160.62 240.91 200.78 361.38 80.31" class="fdc5ba9c-7de3-4502-a6a3-ff8f6da91e85"></polygon><polygon points="361.39 642.46 240.93 522 200.77 562.15 361.38 722.76 361.38 722.75 361.4 722.77 522 562.17 481.84 522.01 361.39 642.46" class="fdc5ba9c-7de3-4502-a6a3-ff8f6da91e85"></polygon><polygon points="80.31 361.38 200.76 240.93 160.61 200.78 40.16 321.23 40.15 321.22 0 361.38 40.15 401.54 160.61 522 200.77 481.84 80.31 361.38" class="fdc5ba9c-7de3-4502-a6a3-ff8f6da91e85"></polygon><polygon points="722.77 361.38 883.38 200.78 843.23 160.63 682.63 321.24 562.16 200.77 522 240.93 642.47 361.39 522 481.86 562.15 522.01 682.62 401.55 803.09 522.02 843.23 562.16 883.39 522 722.77 361.38" class="fdc5ba9c-7de3-4502-a6a3-ff8f6da91e85"></polygon></g><path d="M516 309.62h-2.81l-3.74-5.5h-1.61v5.5h-2.32v-15h5.85c3.21 0 4.56 2.37 4.56 4.76 0 2.2-1.11 4.33-3.87 4.63zm-8.16-12.85V302h3.35a2.64 2.64 0 0 0 .09-5.24z" class="e499f3d8-fe19-4e90-a3c1-cc1ee28ba2a6"></path><path d="M525.63 294.47a7.69 7.69 0 1 1-7.57 7.81v-.12a7.59 7.59 0 0 1 7.49-7.69h.08zm0 13.11a5.43 5.43 0 1 0-5.26-5.6v.18a5.3 5.3 0 0 0 5.18 5.42z" class="e499f3d8-fe19-4e90-a3c1-cc1ee28ba2a6"></path><path d="M536.22 294.64h2.31v15h-2.31z" class="e499f3d8-fe19-4e90-a3c1-cc1ee28ba2a6"></path><path d="M464 338.15h-6l-1.43 3.74h-2.46l5.65-15h2.5l5.66 15h-2.49zm-5.27-2.06h4.48l-2.24-6.29z" class="e499f3d8-fe19-4e90-a3c1-cc1ee28ba2a6"></path><path d="M482.07 339.35a7.2 7.2 0 0 1-5.83 2.76 7.69 7.69 0 0 1 0-15.37 7.3 7.3 0 0 1 5.79 2.7l-1.78 1.39a5.37 5.37 0 1 0-4 9.06 5.12 5.12 0 0 0 4.05-1.95z" class="e499f3d8-fe19-4e90-a3c1-cc1ee28ba2a6"></path><path d="m496.82 343.35-1.74 1.12-1.65-2.66a7.11 7.11 0 0 1-2.29.35 7.69 7.69 0 1 1 7.63-7.75v.06a7.65 7.65 0 0 1-3.47 6.45zm-2.74-4.35a5.4 5.4 0 1 0-8.22-4.52 5.25 5.25 0 0 0 4.76 5.34 5 5 0 0 0 1.55 0l-1.48-2.39 1.72-1.06z" class="e499f3d8-fe19-4e90-a3c1-cc1ee28ba2a6"></path><path d="M510.39 336.7v-9.79h2.3v9.79a5.56 5.56 0 0 1-11.11 0v-9.79h2.35v9.79a3.22 3.22 0 0 0 6.43 0z" class="e499f3d8-fe19-4e90-a3c1-cc1ee28ba2a6"></path><path d="M516.48 326.91h2.31v15h-2.31z" class="e499f3d8-fe19-4e90-a3c1-cc1ee28ba2a6"></path><path d="M524.14 337.55a2.8 2.8 0 0 0 3 2.45c1.76 0 2.67-.95 2.82-2 .09-1.39-1-2.11-2.37-2.44l-1.89-.48c-3.21-.86-3.71-2.69-3.71-4 0-2.56 2.3-4.28 4.93-4.28s4.87 1.7 4.87 4.43h-2.3a2.65 2.65 0 0 0-5.2-.19c0 .59.22 1.5 2 2l1.91.5c3 .8 4.29 2.5 4 4.65-.22 2.35-2.24 4-5.11 4-3.11 0-5.29-2.13-5.29-4.56z" class="e499f3d8-fe19-4e90-a3c1-cc1ee28ba2a6"></path><path d="M535.19 326.91h2.3v15h-2.3z" class="e499f3d8-fe19-4e90-a3c1-cc1ee28ba2a6"></path><path d="M540.06 326.91h11.18v2.16h-4.42v12.82h-2.34v-12.82h-4.42z" class="e499f3d8-fe19-4e90-a3c1-cc1ee28ba2a6"></path><path d="M553.81 326.91h2.3v15h-2.3z" class="e499f3d8-fe19-4e90-a3c1-cc1ee28ba2a6"></path><path d="M566.69 326.74a7.69 7.69 0 1 1-7.57 7.81v-.08a7.6 7.6 0 0 1 7.5-7.7zm0 13.11a5.43 5.43 0 1 0-5.26-5.6v.22a5.3 5.3 0 0 0 5.19 5.41z" class="e499f3d8-fe19-4e90-a3c1-cc1ee28ba2a6"></path><path d="M588.15 341.89H586l-6.43-10.72v10.72h-2.31v-15h2.22l6.37 10.64v-10.62h2.31z" class="e499f3d8-fe19-4e90-a3c1-cc1ee28ba2a6"></path><path d="M451.44 359.18h9v2.14h-6.75v4.43h5.87v2.11h-5.87v4.2h7v2.11h-9.24z" class="e499f3d8-fe19-4e90-a3c1-cc1ee28ba2a6"></path><path d="M474.69 374.17h-2.16l-6.45-10.7v10.7h-2.31v-15H466l6.37 10.64v-10.63h2.33z" class="e499f3d8-fe19-4e90-a3c1-cc1ee28ba2a6"></path><path d="M488.76 362.62a5.08 5.08 0 0 0-3.52-1.41 5.5 5.5 0 0 0 0 11c2.43 0 4.39-1.44 4.5-3.68h-4.2v-2h6.85c0 5.34-2.87 7.82-7.15 7.82a7.69 7.69 0 0 1 0-15.37 7.33 7.33 0 0 1 5.22 2.11z" class="e499f3d8-fe19-4e90-a3c1-cc1ee28ba2a6"></path><path d="M503 370.47h-6l-1.44 3.74h-2.45l5.65-15h2.5l5.65 15h-2.43zm-5.27-2.11h4.48l-2.24-6.28z" class="e499f3d8-fe19-4e90-a3c1-cc1ee28ba2a6"></path><path d="M518.8 362.62a5.11 5.11 0 0 0-3.53-1.41 5.5 5.5 0 0 0 0 11c2.44 0 4.4-1.44 4.51-3.68h-4.2v-2h6.85c0 5.34-2.87 7.82-7.16 7.82a7.69 7.69 0 0 1 0-15.37 7.33 7.33 0 0 1 5.22 2.11z" class="e499f3d8-fe19-4e90-a3c1-cc1ee28ba2a6"></path><path d="M525 359.18h9v2.14h-6.72v4.43h5.87v2.11h-5.87v4.2h6.93v2.11H525z" class="e499f3d8-fe19-4e90-a3c1-cc1ee28ba2a6"></path><path d="M550.57 359.18h2.12l1.83 15h-2.31l-1.33-10.71-4.4 9h-2l-4.42-9-1.28 10.7h-2.3l1.82-15h2l5.08 10.68z" class="e499f3d8-fe19-4e90-a3c1-cc1ee28ba2a6"></path><path d="M557.54 359.18h9v2.14h-6.72v4.43h5.87v2.11h-5.87v4.2h6.94v2.11h-9.24z" class="e499f3d8-fe19-4e90-a3c1-cc1ee28ba2a6"></path><path d="M580.76 374.17h-2.15l-6.44-10.7v10.7h-2.3v-15h2.22l6.37 10.64v-10.63h2.3z" class="e499f3d8-fe19-4e90-a3c1-cc1ee28ba2a6"></path><path d="M583.33 359.18h11.18v2.16h-4.42v12.83h-2.34v-12.83h-4.42z" class="e499f3d8-fe19-4e90-a3c1-cc1ee28ba2a6"></path><path d="M476.41 406.47h-2.81l-3.74-5.5h-1.61v5.5h-2.32v-15h5.84c3.22 0 4.57 2.37 4.57 4.76 0 2.19-1.11 4.33-3.87 4.63zm-8.16-12.85v5.24h3.35a2.64 2.64 0 0 0 .09-5.24z" class="e499f3d8-fe19-4e90-a3c1-cc1ee28ba2a6"></path><path d="M479.45 391.47h9v2.13h-6.76v4.4h5.87v2.11h-5.87v4.2h7v2.13h-9.25z" class="e499f3d8-fe19-4e90-a3c1-cc1ee28ba2a6"></path><path d="M490.44 391.47h11.17v2.15h-4.41v12.85h-2.35v-12.86h-4.41z" class="e499f3d8-fe19-4e90-a3c1-cc1ee28ba2a6"></path><path d="M504.18 391.47h9v2.13h-6.69v4.4h5.87v2.11h-5.87v4.2h6.94v2.13h-9.25z" class="e499f3d8-fe19-4e90-a3c1-cc1ee28ba2a6"></path><path d="M527.41 406.47h-2.15l-6.44-10.72v10.72h-2.3v-15h2.17l6.38 10.63v-10.63h2.3z" class="e499f3d8-fe19-4e90-a3c1-cc1ee28ba2a6"></path><path d="M530 391.47h11.18v2.15h-4.42v12.85h-2.35v-12.86H530z" class="e499f3d8-fe19-4e90-a3c1-cc1ee28ba2a6"></path><path d="M543.69 391.47H546v15h-2.3z" class="e499f3d8-fe19-4e90-a3c1-cc1ee28ba2a6"></path><path d="M556.58 391.28a7.69 7.69 0 1 1-7.57 7.81V399a7.6 7.6 0 0 1 7.5-7.7h.07zm0 13.11a5.43 5.43 0 1 0-5.26-5.6v.21a5.3 5.3 0 0 0 5.19 5.41h.07z" class="e499f3d8-fe19-4e90-a3c1-cc1ee28ba2a6"></path><path d="M578.06 406.47h-2.15l-6.43-10.72v10.72h-2.31v-15h2.22l6.37 10.63v-10.63h2.3z" class="e499f3d8-fe19-4e90-a3c1-cc1ee28ba2a6"></path><polyline points="138.34 499.73 160.61 522 200.77 562.15 231.59 592.97" class="e184a2f5-0942-461c-8655-f9d935319930"></polyline></g></g></svg>