<svg xmlns="http://www.w3.org/2000/svg" width="86" height="34" viewBox="0 0 86 34" fill="none">
<path opacity="0.6" fill-rule="evenodd" clip-rule="evenodd" d="M77.3701 23.3211C78.4396 23.3211 78.9983 22.3155 79.2217 21.0385H85.064C84.3297 29.9296 72.0386 29.9934 70.9692 22.954V27.5352H62.4931V22.8901C61.7588 27.4235 59.1569 28.046 58.0236 28.046C57.0659 28.046 54.7354 27.2638 53.8734 24.8695L53.9532 27.4714C53.9692 29.0836 55.0067 30.1052 56.0922 30.2488V34H46.2114V30.2329C47.0415 30.2169 48.3663 29.3869 48.3823 27.5831V20.7671C48.079 22.4751 46.818 28.0141 40.7363 28.0141C34.7185 28.0141 33.3457 22.1718 33.0903 21.3099C31.9569 27.6789 27.7269 28.03 25.8753 27.9981C22.5391 27.9502 20.5278 25.6516 20.48 25.6038C18.4687 23.5606 18.0856 20.4798 18.1654 17.1437C18.1654 16.4732 18.341 15.1643 18.4048 14.5258C16.2499 16.8404 14.2386 16.5531 11.8602 16.6488H9.86493V20.4639C9.86493 21.9962 10.4236 22.9061 12.1316 22.9221V27.5033H0.38324V23.0178C2.09122 23.0019 2.68183 22.0122 2.68183 20.4798V6.89577C2.68183 6.57653 2.60202 4.46948 0.399203 4.45352V0H13.0734C15.4677 0 17.1598 0.734272 18.3091 1.62817C20.4161 3.28826 20.8471 6.1615 21.0227 8.26855C24.2471 5.45916 31.8931 4.83662 33.1861 13.2329C34.5748 6.83192 39.2837 6.35305 40.3851 6.33709C42.3645 6.33709 45.7485 7.53427 46.8499 10.7746V6.78404H53.7936V9.35399C54.3044 7.42254 56.0123 6.36901 57.7523 6.35305C59.4283 6.33709 62.8602 8.2047 63.7382 15.2761V5.85822C63.7382 4.50141 62.8922 3.79906 61.5354 3.79906V0.0478878H69.6123V15.292C70.3466 8.5399 74.1138 6.38498 77.2903 6.38498C80.5147 6.38498 82.7973 8.17277 83.9626 10.4714C85.463 13.4085 85.3513 16.5211 85.2715 18.5324H75.4386C75.4067 18.9155 75.4386 19.57 75.4706 20.1606C75.5184 21.8207 76.0612 23.3371 77.3701 23.3211ZM26.0349 23.3211C27.1044 23.3211 27.6631 22.3315 27.8865 21.0545H33.0105C32.7551 19.7775 32.7231 19.5061 32.6912 18.5164H24.0715C24.0396 18.8995 24.0715 19.554 24.1034 20.1446C24.1832 21.8207 24.726 23.3371 26.0349 23.3211ZM38.5814 17.2394C38.5814 20.6235 39.1879 23.3531 40.7203 23.369C42.2846 23.385 42.8593 20.6235 42.8593 17.2394C42.8593 13.8554 42.2527 11.1258 40.7203 11.1099C39.2358 11.0779 38.5814 13.8554 38.5814 17.2394ZM26.003 10.9822C24.694 10.9822 24.1034 12.5784 24.0236 14.2545C23.9917 14.8291 23.9917 14.8451 24.0236 15.2761H27.9025C27.9344 14.8451 27.9344 14.8291 27.9025 14.2545C27.8227 12.5784 27.3119 10.9822 26.003 10.9822ZM77.3382 11.1099C76.0293 11.1099 75.4865 12.5784 75.3907 14.2545C75.3588 14.8291 75.3588 14.8451 75.3907 15.2761H79.2696C79.3015 14.8451 79.3015 14.8291 79.2696 14.2545C79.1898 12.5784 78.6471 11.1099 77.3382 11.1099ZM54.1288 20.3202C54.1288 22.0282 54.5438 23.3211 55.741 23.3211C57.0818 23.3211 57.88 21.5174 57.88 17.2554C57.88 12.5784 57.1616 10.9822 55.9006 10.9343C54.6875 10.8864 54.0649 11.908 54.1288 14.0469V20.3202ZM9.86493 11.5728H11.5091C12.9936 11.5249 13.5203 10.631 13.5203 8.34836C13.5203 6.27324 12.7861 5.20376 11.5091 5.20376H9.86493V11.5728Z" fill="#161616"/>
</svg>