<svg xmlns="http://www.w3.org/2000/svg" width="206" height="34" viewBox="0 0 206 34" fill="none">
<path opacity="0.6" d="M35.1991 21.7151C35.1991 20.4171 35.1991 19.1721 35.1991 17.8807C37.351 17.8807 39.483 17.8807 41.6216 17.8807C41.6216 17.2715 41.6216 16.7019 41.6216 16.0927C39.4697 16.0927 37.3377 16.0927 35.1991 16.0927C35.1991 14.7285 35.1991 13.4106 35.1991 12.0597C37.7295 12.0597 40.2335 12.0597 42.7508 12.0597C42.7508 11.4371 42.7508 10.8478 42.7508 10.2584C39.5959 10.2584 36.4676 10.2584 33.3459 10.2584C33.3459 14.6954 33.3459 19.1059 33.3459 23.5097C36.5008 23.5097 39.6291 23.5097 42.7508 23.5097C42.7508 22.9005 42.7508 22.3243 42.7508 21.7217C40.2335 21.7151 37.7362 21.7151 35.1991 21.7151ZM110.683 16C108.863 16 107.063 16 105.236 16C105.236 14.0265 105.236 12.0994 105.236 10.1524C104.612 10.1524 104.021 10.1524 103.397 10.1524C103.397 12.1126 103.397 14.053 103.397 16.0397C101.564 16.0397 99.7637 16.0397 97.9571 16.0397C97.9571 16.6556 97.9571 17.2251 97.9571 17.841C98.1099 17.841 98.256 17.841 98.3955 17.841C99.9364 17.841 101.484 17.8476 103.025 17.8344C103.317 17.8344 103.41 17.9138 103.41 18.2118C103.397 19.8939 103.403 21.576 103.403 23.2581C103.403 23.3839 103.417 23.5097 103.423 23.6422C104.041 23.6422 104.619 23.6422 105.25 23.6422C105.25 21.7018 105.25 19.7747 105.25 17.8145C107.09 17.8145 108.876 17.8145 110.683 17.8145C110.683 17.1986 110.683 16.6225 110.683 16ZM76.5175 10.2451C76.5175 14.6821 76.5175 19.0992 76.5175 23.5097C79.5329 23.5097 82.5151 23.5097 85.5104 23.5097C85.5104 22.9071 85.5104 22.3243 85.5104 21.7018C83.1195 21.7018 80.7484 21.7018 78.3374 21.7018C78.3374 17.8609 78.3374 14.0596 78.3374 10.2451C77.7196 10.2451 77.1285 10.2451 76.5175 10.2451ZM64.3829 21.6952C61.9853 21.6952 59.6009 21.6952 57.1833 21.6952C57.1833 17.8476 57.1833 14.053 57.1833 10.2517C56.559 10.2517 55.9679 10.2517 55.3834 10.2517C55.3834 14.6887 55.3834 19.0992 55.3834 23.5097C58.3921 23.5097 61.381 23.5097 64.3829 23.5097C64.3829 22.9137 64.3829 22.331 64.3829 21.6952ZM3 10.2118C3.50477 10.2184 4.00955 10.2515 4.50769 10.2118C4.87962 10.1853 5.01245 10.331 5.11873 10.6687C6.06185 13.6819 7.02492 16.6885 7.98797 19.695C8.03446 19.8341 8.08761 19.9798 8.16067 20.1917C8.27357 19.8672 8.36656 19.6156 8.45289 19.3573C9.4226 16.4368 10.3857 13.523 11.3421 10.6025C11.4417 10.3045 11.5745 10.1787 11.8933 10.2118C12.1656 10.2449 12.4446 10.2383 12.7169 10.2118C12.9892 10.1853 13.0822 10.3045 13.1619 10.5429C14.1715 13.6223 15.2009 16.6951 16.2171 19.7679C16.257 19.8805 16.2968 19.9864 16.3699 20.1917C16.5426 19.6685 16.6887 19.2248 16.8282 18.7811C17.7048 16.0461 18.5816 13.3111 19.445 10.576C19.5313 10.3045 19.6443 10.1919 19.9432 10.2118C20.4546 10.2383 20.9726 10.2184 21.5372 10.2184C21.3048 10.9469 21.0856 11.6422 20.8597 12.3442C19.6975 15.9468 18.5285 19.5493 17.3794 23.1586C17.2865 23.4499 17.1603 23.5625 16.8614 23.536C16.5625 23.5095 16.2636 23.5028 15.9648 23.536C15.6326 23.5691 15.5198 23.43 15.4268 23.132C14.4371 20.1122 13.4276 17.0924 12.4247 14.0726C12.3915 13.96 12.345 13.8541 12.2719 13.662C12.1989 13.874 12.1457 14.0064 12.0992 14.1455C11.103 17.152 10.1067 20.1586 9.11708 23.1718C9.02409 23.4499 8.91118 23.5559 8.61894 23.5294C8.27357 23.5028 7.92156 23.5095 7.57618 23.5294C7.357 23.5426 7.27066 23.4632 7.20424 23.2513C6.32753 20.5361 5.45081 17.8209 4.57411 15.0991C4.08261 13.5826 3.59112 12.0594 3.09298 10.5429C3.07306 10.4767 3.03321 10.4171 3 10.3575C3 10.3045 3 10.2581 3 10.2118ZM129.778 10C130.091 10.0728 130.402 10.1324 130.707 10.2185C132.448 10.6755 133.796 11.6755 134.826 13.1787C134.328 13.5231 133.843 13.8675 133.325 14.2251C133.166 14.0264 133.013 13.8344 132.859 13.6489C131.578 12.1125 129.446 11.4702 127.54 12.0529C125.567 12.6556 124.152 14.3575 123.946 16.3575C123.714 18.6157 124.983 20.715 127.101 21.5759C129.18 22.4236 131.538 21.7878 132.947 20.0197C133.146 19.768 133.272 19.5097 133.245 19.172C133.218 18.7945 133.238 18.417 133.238 17.9932C131.711 17.9932 130.223 17.9932 128.708 17.9932C128.708 17.4104 128.708 16.8674 128.708 16.2979C130.801 16.2979 132.887 16.2979 134.998 16.2979C134.998 18.6952 134.998 21.0859 134.998 23.5096C134.454 23.5096 133.903 23.5096 133.305 23.5096C133.305 23.1056 133.305 22.6819 133.305 22.1984C133.172 22.2845 133.092 22.3242 133.026 22.3838C132.156 23.0792 131.179 23.5162 130.083 23.6951C130.031 23.7018 129.977 23.7414 129.924 23.7613C129.3 23.7613 128.682 23.7613 128.058 23.7613C127.334 23.5295 126.577 23.3706 125.899 23.0461C123.243 21.768 121.682 18.9336 122.133 15.9336C122.605 12.8278 124.949 10.5165 127.978 10.0795C128.058 10.0662 128.13 10.0331 128.204 10.0066C128.722 10 129.246 10 129.778 10ZM202.32 18.0198C202.254 18.3045 202.18 18.5893 202.114 18.8741C201.457 21.6819 199.311 23.4568 196.429 23.523C194.609 23.5628 192.788 23.5296 190.976 23.5296C190.929 23.5296 190.882 23.5164 190.816 23.5097C190.816 19.086 190.816 14.6688 190.816 10.2186C191.088 10.2186 191.341 10.2186 191.586 10.2186C193.306 10.2319 195.034 10.1723 196.754 10.2782C199.597 10.457 201.636 12.3444 202.174 15.139C202.214 15.3576 202.274 15.5761 202.32 15.7947C202.32 16.5364 202.32 17.2781 202.32 18.0198ZM192.656 21.6753C194.024 21.6753 195.352 21.7415 196.674 21.6555C198.228 21.5561 199.358 20.7217 200.014 19.3045C200.52 18.2118 200.626 17.0529 200.433 15.8741C200.028 13.3907 198.448 12.0596 195.937 12.0596C194.98 12.0596 194.024 12.0596 193.061 12.0596C192.935 12.0596 192.802 12.0596 192.656 12.0596C192.656 15.298 192.656 18.49 192.656 21.6753ZM151.969 10C152.427 10.1192 152.892 10.2053 153.344 10.351C156.419 11.3576 158.318 14.2516 158.072 17.5429C157.846 20.5759 155.423 23.1587 152.314 23.6819C152.248 23.6951 152.181 23.7282 152.115 23.748C151.491 23.748 150.873 23.748 150.248 23.748C149.624 23.5626 148.974 23.4302 148.376 23.1786C145.512 21.9468 143.878 19.0064 144.297 15.9204C144.703 12.9138 147.14 10.4967 150.195 10.0662C150.261 10.0596 150.321 10.0199 150.387 10C150.919 10 151.443 10 151.969 10ZM156.24 16.8939C156.246 14.1324 153.948 11.8344 151.172 11.8278C148.402 11.8212 146.09 14.1191 146.084 16.8807C146.084 19.6422 148.376 21.9335 151.158 21.9468C153.928 21.96 156.232 19.662 156.24 16.8939ZM173.082 23.748C172.319 23.4965 171.515 23.3242 170.798 22.9733C168.181 21.6951 166.707 18.7813 167.139 15.8674C167.556 13.0264 169.802 10.6755 172.618 10.1391C172.823 10.0993 173.03 10.0464 173.235 10C173.76 10 174.291 10 174.816 10C175.089 10.0662 175.36 10.1258 175.639 10.192C178.847 10.9669 181.046 13.8476 180.934 17.1124C180.82 20.4038 178.429 23.1189 175.155 23.6752C175.089 23.6885 175.021 23.7215 174.963 23.7414C174.331 23.748 173.706 23.748 173.082 23.748ZM179.073 16.9071C179.1 14.1589 176.822 11.8675 174.019 11.8278C171.29 11.788 168.938 14.0993 168.918 16.8277C168.899 19.6091 171.183 21.9203 173.979 21.9468C176.749 21.9666 179.053 19.6885 179.073 16.9071ZM35.1991 21.7151C37.7363 21.7151 40.2342 21.715 42.758 21.715C42.758 22.3243 42.758 22.9005 42.758 23.5031C39.6298 23.5031 36.5015 23.5031 33.3533 23.5031C33.3533 19.0992 33.3533 14.6887 33.3533 10.2517C36.4816 10.2517 39.6032 10.2517 42.758 10.2517C42.758 10.8411 42.758 11.4305 42.758 12.053C40.2342 12.053 37.7303 12.053 35.2063 12.053C35.2063 13.4106 35.2063 14.7284 35.2063 16.086C37.345 16.086 39.477 16.086 41.629 16.086C41.629 16.6952 41.629 17.2648 41.629 17.874C39.4904 17.874 37.3584 17.874 35.2063 17.874C35.1997 19.172 35.1991 20.4171 35.1991 21.7151ZM110.683 16C110.683 16.6225 110.683 17.1986 110.683 17.8211C108.876 17.8211 107.09 17.8211 105.25 17.8211C105.25 19.7813 105.25 21.7084 105.25 23.6487C104.619 23.6487 104.041 23.6487 103.423 23.6487C103.417 23.5164 103.403 23.3905 103.403 23.2646C103.403 21.5826 103.397 19.9005 103.41 18.2184C103.41 17.9204 103.324 17.8343 103.025 17.8409C101.484 17.8542 99.9364 17.8476 98.3955 17.8476C98.256 17.8476 98.1165 17.8476 97.9571 17.8476C97.9571 17.2317 97.9571 16.6621 97.9571 16.0463C99.7637 16.0463 101.557 16.0463 103.397 16.0463C103.397 14.0596 103.397 12.1192 103.397 10.159C104.028 10.159 104.619 10.159 105.236 10.159C105.236 12.0993 105.236 14.0331 105.236 16.0065C107.07 15.9999 108.863 16 110.683 16ZM76.5175 10.2451C77.1219 10.2451 77.7135 10.245 78.3445 10.245C78.3445 14.0594 78.3445 17.8607 78.3445 21.7017C80.7555 21.7017 83.1266 21.7017 85.5177 21.7017C85.5177 22.3242 85.5177 22.907 85.5177 23.5096C82.5222 23.5096 79.5334 23.5096 76.5247 23.5096C76.518 19.0991 76.5175 14.6821 76.5175 10.2451ZM35.1991 21.7151C35.1991 20.4171 35.1991 19.1721 35.1991 17.8807C37.351 17.8807 39.483 17.8807 41.6216 17.8807C41.6216 17.2715 41.6216 16.7019 41.6216 16.0927C39.4697 16.0927 37.3377 16.0927 35.1991 16.0927C35.1991 14.7285 35.1991 13.4106 35.1991 12.0597C37.7295 12.0597 40.2335 12.0597 42.7508 12.0597C42.7508 11.4371 42.7508 10.8478 42.7508 10.2584C39.5959 10.2584 36.4676 10.2584 33.3459 10.2584C33.3459 14.6954 33.3459 19.1059 33.3459 23.5097C36.5008 23.5097 39.6291 23.5097 42.7508 23.5097C42.7508 22.9005 42.7508 22.3243 42.7508 21.7217C40.2335 21.7151 37.7362 21.7151 35.1991 21.7151ZM110.683 16C108.863 16 107.063 16 105.236 16C105.236 14.0265 105.236 12.0994 105.236 10.1524C104.612 10.1524 104.021 10.1524 103.397 10.1524C103.397 12.1126 103.397 14.053 103.397 16.0397C101.564 16.0397 99.7637 16.0397 97.9571 16.0397C97.9571 16.6556 97.9571 17.2251 97.9571 17.841C98.1099 17.841 98.256 17.841 98.3955 17.841C99.9364 17.841 101.484 17.8476 103.025 17.8344C103.317 17.8344 103.41 17.9138 103.41 18.2118C103.397 19.8939 103.403 21.576 103.403 23.2581C103.403 23.3839 103.417 23.5097 103.423 23.6422C104.041 23.6422 104.619 23.6422 105.25 23.6422C105.25 21.7018 105.25 19.7747 105.25 17.8145C107.09 17.8145 108.876 17.8145 110.683 17.8145C110.683 17.1986 110.683 16.6225 110.683 16ZM76.5175 10.2451C76.5175 14.6821 76.5175 19.0992 76.5175 23.5097C79.5329 23.5097 82.5151 23.5097 85.5104 23.5097C85.5104 22.9071 85.5104 22.3243 85.5104 21.7018C83.1195 21.7018 80.7484 21.7018 78.3374 21.7018C78.3374 17.8609 78.3374 14.0596 78.3374 10.2451C77.7196 10.2451 77.1285 10.2451 76.5175 10.2451ZM64.3829 21.6952C61.9853 21.6952 59.6009 21.6952 57.1833 21.6952C57.1833 17.8476 57.1833 14.053 57.1833 10.2517C56.559 10.2517 55.9679 10.2517 55.3834 10.2517C55.3834 14.6887 55.3834 19.0992 55.3834 23.5097C58.3921 23.5097 61.381 23.5097 64.3829 23.5097C64.3829 22.9137 64.3829 22.331 64.3829 21.6952Z" fill="black"/>
</svg>