<svg xmlns="http://www.w3.org/2000/svg" width="138" height="36" viewBox="0 0 138 36" fill="none">
<g opacity="0.6">
<path d="M40.0949 0.237152C32.0825 0.294436 25.5286 9.19958 25.5286 16.9669C25.5286 25.1407 30.3329 35.1115 40.0949 35.0791C49.8568 35.0468 54.9236 24.3124 54.9236 16.9669C54.9236 8.85324 48.1072 0.179868 40.0949 0.237152ZM40.0949 0.541813C46.8009 0.541813 48.6101 7.94813 48.6101 16.9669C48.6101 28.867 46.4277 34.7379 40.0949 34.7268C33.762 34.7156 31.7018 29.9105 31.7018 16.9669C31.7018 8.8588 33.3888 0.541813 40.0949 0.541813Z" fill="#161616"/>
<path d="M57.5693 17.1865C57.5334 8.34851 64.6069 0.519731 70.5947 0.131308C72.7576 -0.021923 75.5378 0.968534 77.1609 1.6741C78.3395 2.18644 80.7455 1.44484 81.1727 0.0842896H81.4057V12.1233H81.1727C81.1727 11.6101 78.9432 0.43399 70.5947 0.43399C64.4282 0.43399 63.8325 11.2769 63.8325 17.1865C63.8325 23.0962 64.0122 34.7952 71.2082 34.7952C74.6941 34.7952 77.2744 33.2701 77.9433 30.1847V20.8032H75.0173V20.4036H86.359V20.8032H83.5616V34.5189H83.3338C83.3338 34.5189 82.8791 32.5399 80.5713 32.5465C77.6219 32.555 74.8402 35.1175 71.4495 35.0863C62.4822 35.0038 57.6052 26.0245 57.5693 17.1865Z" fill="#161616"/>
<path d="M3.53146 1.42303H0V1.02606H12.3709V1.42303H9.26732L18.1066 25.4278C20.8707 16.918 23.012 10.6276 25.8936 1.42303H22.8238V1.02606H29.3557V1.42303H26.3812L15.6379 34.9143L3.53146 1.42303Z" fill="#161616"/>
<path d="M88.0911 26.7147L88.0352 1.38444H84.6738V1.00501H97.0579V1.38444H93.6984L93.773 29.1577C94.5167 32.338 95.839 34.7511 100.356 34.7871C104.874 34.823 107.945 32.1148 109.086 28.4136V1.38444H105.241L105.241 1.01619H136.714L136.779 13.1757H136.477C135.893 5.32477 132.864 2.35767 127.566 1.49206C125.743 1.1942 123.83 1.41501 121.413 1.39621V16.915C123.518 17.0777 125.761 16.9446 127.272 15.6465C128.646 14.4661 129.035 11.7389 129.136 10.6309H129.402V24.1429H129.114C129.031 24.1429 128.92 20.7521 127.272 19.1434C125.613 17.5242 123.5 17.1261 121.413 17.5118V34.0893C124.362 34.0893 126.712 34.3391 128.754 33.7794C134.959 32.0781 137.144 26.8429 137.127 21.5921H137.472V34.4818H112.785V34.0893H115.577V1.38444H109.546V28.4136C108.862 30.9998 106.364 35.2783 99.9612 35.2491C94.0082 35.222 88.1039 32.5382 88.0911 26.7147Z" fill="#161616"/>
</g>
</svg>