<svg xmlns="http://www.w3.org/2000/svg" width="51" height="20" viewBox="0 0 51 20" fill="none">
<g opacity="0.6">
<path fill-rule="evenodd" clip-rule="evenodd" d="M2.00597 19.6825H0.486694V19.9773H8.89939V14.6712H8.64996C8.64996 14.6712 8.64996 17.7324 7.62955 18.7302C6.76787 19.5918 5.86084 19.6599 4.38692 19.6599V9.88662C4.38692 9.88662 5.40733 9.81859 5.9062 10.3175C6.67717 11.0884 6.76787 12.0862 6.76787 13.4694H7.03998V5.98639H6.76787C6.76787 7.36961 6.69985 8.36735 5.9062 9.13832C5.40733 9.63719 4.38692 9.56916 4.38692 9.56916V0.294785C5.86084 0.294785 6.56379 0.385488 7.42547 1.22449C8.4232 2.22222 8.44588 5.28345 8.44588 5.28345H8.69531V0H0.486694V0.294785H2.00597V19.6825Z" fill="#161616"/>
<path fill-rule="evenodd" clip-rule="evenodd" d="M18.4459 0.294785V19.6825C19.9198 19.6825 20.8268 19.5918 21.6885 18.7528C22.6863 17.7551 22.7089 14.6939 22.7089 14.6939H22.9584V20H14.5457V19.7052H16.0649V0.272109H14.5457V0H19.8291V0.294785H18.4459Z" fill="#161616"/>
<path fill-rule="evenodd" clip-rule="evenodd" d="M31.9606 0.294785V19.6825C33.4345 19.6825 34.3416 19.5918 35.2032 18.7528C36.201 17.7551 36.2236 14.6939 36.2236 14.6939H36.4731V20H28.0604V19.7052H29.5797V0.272109H28.0604V0H33.3438V0.294785H31.9606Z" fill="#161616"/>
<path fill-rule="evenodd" clip-rule="evenodd" d="M43.4346 19.6825H41.9153V19.9773H50.328V14.6712H50.0785C50.0785 14.6712 50.0785 17.7324 49.0581 18.7302C48.1965 19.5918 47.2894 19.6599 45.8155 19.6599V9.88662C45.8155 9.88662 46.8359 9.81859 47.3348 10.3175C48.1058 11.0884 48.1965 12.0862 48.1965 13.4694H48.4686V5.98639H48.1965C48.1965 7.36961 48.1284 8.36735 47.3348 9.13832C46.8359 9.63719 45.8155 9.56916 45.8155 9.56916V0.294785C47.2894 0.294785 47.9924 0.385488 48.8541 1.22449C49.8518 2.22222 49.8745 5.28345 49.8745 5.28345H50.1239V0H41.9153V0.294785H43.4346V19.6825Z" fill="#161616"/>
</g>
</svg>