<svg xmlns="http://www.w3.org/2000/svg" width="135" height="36" viewBox="0 0 135 36" fill="none">
<g opacity="0.6">
<path d="M13.1762 3.36523H16.1181C17.9096 3.1013 19.7393 3.33335 21.4083 4.03618C23.5021 5.29591 25.0208 7.32394 25.6404 9.68765C26.0791 10.9263 26.0791 10.9263 27.1372 10.4876H27.9629V0.681424H0.273297V2.41041H1.40875C1.90217 2.407 2.39009 2.51417 2.83666 2.72406C3.28323 2.93394 3.6771 3.24121 3.98933 3.62329C5.04737 5.32647 5.22801 7.2361 5.22801 17.1713C5.22801 27.7259 4.99576 30.3065 3.98933 31.6226C3.74088 31.9609 3.4192 32.2388 3.04832 32.4354C2.67743 32.632 2.26693 32.7423 1.84745 32.7581C0.273297 33.0419 0.273297 33.0161 0.273297 33.7129C0.186245 33.9459 0.186245 34.2024 0.273297 34.4354H17.7438C17.8595 34.2075 17.9197 33.9555 17.9197 33.7C17.9197 33.4444 17.8595 33.1924 17.7438 32.9645C17.3207 32.8468 16.8894 32.7605 16.4535 32.7064C15.982 32.6504 15.5159 32.5554 15.06 32.4226C14.4072 31.946 13.89 31.3072 13.5596 30.5695C13.2292 29.8318 13.0971 29.0207 13.1762 28.2162C12.9181 26.513 12.7891 23.3905 12.7891 20.81V18.7713H13.8214C15.1074 18.732 16.3927 18.8709 17.6406 19.1842C18.2385 19.5536 18.7474 20.0505 19.131 20.6393C19.5146 21.2282 19.7635 21.8944 19.8599 22.5906L20.0922 23.3905H21.6663V11.9586H20.2212L19.9889 13.0682C19.8912 13.7801 19.6279 14.4592 19.22 15.0508C18.8122 15.6424 18.2712 16.13 17.6406 16.4746C17.0299 16.6563 16.3865 16.7004 15.7568 16.6036H12.7891V13.8166C12.7891 10.9263 12.944 4.83616 13.0472 3.88135L13.1762 3.36523ZM133.947 23.8292C132.728 21.866 130.825 20.423 128.606 19.7777C126.904 19.2459 125.331 18.3672 123.986 17.1971C123.684 16.9044 123.457 16.5421 123.327 16.1418C123.196 15.7414 123.166 15.3153 123.238 14.9004C123.24 14.0867 123.565 13.3071 124.141 12.7327C124.532 12.3236 125.026 12.0283 125.572 11.8783C126.117 11.7283 126.693 11.7293 127.238 11.8811C128.366 12.2027 129.386 12.8233 130.19 13.6774C130.994 14.5315 131.553 15.5872 131.806 16.7326C132.218 17.8939 132.27 17.8939 133.018 17.5842L133.483 17.4036V10.9779L133.147 10.8231C130.607 9.93082 127.912 9.56213 125.225 9.73927C122.911 9.79789 120.703 10.7182 119.032 12.3198C118.274 13.0292 117.68 13.8957 117.292 14.8585C116.905 15.8214 116.732 16.8573 116.787 17.8939C116.801 19.4787 117.43 20.996 118.541 22.1261C119.769 23.3338 121.276 24.2201 122.928 24.7066C126.928 26.2808 128.09 27.2872 128.09 29.1194C128.107 29.8921 127.861 30.6476 127.392 31.2619C126.923 31.8762 126.259 32.3128 125.509 32.5C124.608 32.698 123.675 32.698 122.774 32.5C121.594 32.0421 120.54 31.3091 119.701 30.3621C118.862 29.415 118.261 28.2812 117.948 27.055L117.612 26.2292H117.148C116.926 26.2457 116.708 26.298 116.503 26.384H116.245V33.7129H116.683C118.427 34.2928 120.226 34.6906 122.051 34.8999H124.632C125.751 34.9821 126.876 34.8774 127.96 34.5903C129.338 34.3361 130.624 33.726 131.693 32.8206C132.761 31.9152 133.574 30.746 134.051 29.4291C134.359 28.6936 134.517 27.904 134.515 27.1066C134.617 25.9832 134.421 24.8529 133.947 23.8292ZM109.638 10.4876C108.092 9.83839 106.426 9.52344 104.749 9.56347C103.072 9.6035 101.423 9.99759 99.9096 10.7199C98.4868 11.4158 97.2258 12.4024 96.2079 13.6158C95.19 14.8293 94.4378 16.2427 94 17.7649C93.4418 19.4253 93.2054 21.177 93.3033 22.926C93.2848 23.8777 93.3626 24.8287 93.5355 25.7647C93.9523 28.0661 95.0633 30.1848 96.7194 31.8363C98.3755 33.4877 100.497 34.5928 102.8 35.0032C104.299 35.1921 105.816 35.1921 107.316 35.0032C108.872 34.7289 110.361 34.1596 111.703 33.3258C112.813 32.7035 113.752 31.8171 114.438 30.7452C114.394 30.577 114.317 30.4194 114.21 30.282C114.104 30.1445 113.971 30.03 113.819 29.9452C113.524 30.0519 113.246 30.1996 112.993 30.3839C111.71 31.2298 110.194 31.6539 108.658 31.5968C107.638 31.6657 106.616 31.507 105.665 31.1321C104.715 30.7571 103.859 30.1754 103.161 29.4291C102.621 28.9275 102.175 28.3332 101.845 27.6743C101.043 26.07 100.611 24.3064 100.581 22.5131V21.5067H114.877V20.9906C114.909 20.475 114.909 19.9579 114.877 19.4423C114.872 17.6201 114.384 15.8318 113.464 14.259C112.544 12.6862 111.224 11.385 109.638 10.4876ZM102.439 19.4164H100.632V17.8939C101.226 13.9972 102.697 11.6747 104.503 11.6747C106.309 11.6747 107.084 13.9714 107.419 18.1778V19.3648H105.871L102.439 19.4164ZM65.3298 9.63604C64.4381 9.60146 63.5516 9.78761 62.7492 10.178C61.0051 11.025 59.5963 12.4337 58.7493 14.1779L58.4138 14.7972V9.63604H58.2848C57.9751 9.63604 48.427 11.5457 48.1173 11.6747C47.8076 11.8037 47.9108 11.8295 47.9108 12.294C47.9108 12.7585 47.9108 12.836 48.1173 12.8618L49.1237 13.0682C49.4056 13.0751 49.6822 13.1461 49.9326 13.2758C50.1829 13.4054 50.4005 13.5904 50.5688 13.8166C51.214 14.6682 51.343 16.1649 51.343 22.539C51.4705 25.4085 51.3496 28.2836 50.9817 31.1323C50.8951 31.5618 50.6773 31.9539 50.3584 32.2543C50.0394 32.5548 49.6351 32.7488 49.2011 32.8097L48.3237 32.9903H47.9883V33.7129C47.8946 33.9535 47.8946 34.2206 47.9883 34.4612H62.4137V33.7129C62.4638 33.4659 62.4638 33.2114 62.4137 32.9645C61.5452 32.9306 60.6815 32.8184 59.8331 32.629C59.3712 32.3874 58.9932 32.0115 58.7491 31.5508C58.5049 31.0902 58.406 30.5664 58.4654 30.0484C58.259 28.5517 58.1558 24.1647 58.2074 20.81C58.259 17.4552 58.2074 17.2488 58.4912 17.0165C59.3547 16.3544 60.4233 16.0165 61.5105 16.0617C62.5353 16.084 63.5415 16.34 64.4524 16.8101C64.7681 16.9854 65.1069 17.1157 65.4588 17.1971C65.4588 17.1971 68.0394 10.9521 68.0394 10.6683C67.7091 10.2845 67.2884 9.98918 66.8153 9.80895C66.3422 9.62871 65.8316 9.56929 65.3298 9.63604ZM47.9366 20.4745C47.8466 18.6304 47.3171 16.8346 46.3924 15.2365C45.4678 13.6385 44.1746 12.2846 42.6206 11.2876C40.774 10.2914 38.7194 9.74207 36.622 9.6838C34.5245 9.62554 32.4426 10.0599 30.5435 10.9521C27.8584 12.3681 25.831 14.775 24.892 17.6617C23.9222 20.8936 23.9222 24.3391 24.892 27.5711C25.4005 29.3374 26.3508 30.945 27.6533 32.2419C29.2754 33.8248 31.3671 34.8389 33.6144 35.1322C35.057 35.2528 36.5072 35.2528 37.9498 35.1322C38.4807 35.0514 39.0063 34.9394 39.5239 34.7967C41.6244 34.2091 43.5142 33.0355 44.972 31.4131C46.4299 29.7908 47.3955 27.7868 47.756 25.6356C48.0136 23.9279 48.0742 22.1961 47.9366 20.4745ZM37.2014 33.3774C34.6208 34.1516 32.6854 31.6484 32.0403 26.384C31.8033 23.6279 31.8033 20.8565 32.0403 18.1004C32.5564 13.8682 33.8725 11.7263 35.9111 11.7263C36.3224 11.7008 36.7339 11.7742 37.111 11.9403C37.4881 12.1064 37.82 12.3605 38.0788 12.6811C39.8078 14.4101 40.6594 17.8423 40.6594 23.0035C40.8741 25.9244 40.415 28.8556 39.3175 31.571C38.8329 32.3629 38.0831 32.9573 37.2014 33.2484V33.3774ZM83.6519 10.1522C82.9237 10.0585 82.1866 10.0585 81.4584 10.1522C80.0606 10.151 78.6789 10.4502 77.4069 11.0296L76.6069 11.365V5.76517C76.7467 3.87533 76.7467 1.97774 76.6069 0.0878906C76.2972 0.0878906 66.4394 1.97172 66.2846 2.04913C66.2085 2.23966 66.2085 2.45214 66.2846 2.64267C66.2846 3.18459 66.2846 3.15878 67.4458 3.41684C67.7719 3.48996 68.0851 3.61175 68.3749 3.77812C68.8786 4.25181 69.2138 4.87703 69.3297 5.55872C69.6235 7.5226 69.7186 9.5111 69.6135 11.4941V34.1516L70.3103 34.3064C71.3425 34.5387 74.2586 35.029 75.2134 35.1322C77.12 35.2838 79.0357 35.2838 80.9423 35.1322C83.0585 34.916 85.0757 34.1265 86.7764 32.8487C88.4772 31.5709 89.797 29.8532 90.5937 27.8808C91.0686 26.6148 91.3976 25.2988 91.5743 23.9583C91.7279 22.1425 91.6673 20.3149 91.3936 18.5132C91.1168 16.4937 90.2255 14.6082 88.8405 13.1125C87.4556 11.6168 85.6442 10.5833 83.6519 10.1522ZM76.8908 32.9387C76.8908 32.6032 76.6327 21.3003 76.6843 16.7843V13.2489L77.4327 13.0682C77.9376 12.9959 78.4503 12.9959 78.9552 13.0682C79.5137 13.0114 80.0754 13.1383 80.5552 13.4295C81.5189 14.0946 82.3192 14.9697 82.8958 15.9888C83.4724 17.0079 83.8104 18.1446 83.8842 19.3132C84.0721 21.1924 84.0721 23.0856 83.8842 24.9647C83.7297 27.6959 82.6774 30.2995 80.8907 32.371C80.3836 32.8526 79.7467 33.1756 79.0585 33.3C78.5377 33.3906 78.0051 33.3906 77.4843 33.3C76.994 33.3 76.994 33.1451 76.994 32.9387H76.8908Z" fill="#161616"/>
</g>
</svg>